<?xml version="1.0" encoding="utf-8"?>
<svg xmlns="http://www.w3.org/2000/svg" xmlns:svg="http://www.w3.org/2000/svg" version="1.1" viewBox="0 0 1400 340">
	<title>The titlepage for the Standard Ebooks edition of Henry V, by William Shakespeare</title>
	<g aria-label="HENRY V">
		<path d="m 497.58698,99.029239 h 24.88889 V 130 h 17.59065 V 52.807016 H 522.47587 V 83.590642 H 497.58698 V 52.807016 H 479.99634 V 130 h 17.59064 z"/>
		<path d="M 600.43202,52.807016 H 556.26828 V 130 h 44.16374 v -15.4386 h -26.5731 V 99.029239 h 25.45029 V 83.590642 H 573.85892 V 68.245613 h 26.5731 z"/>
		<path d="m 633.13523,82.093566 h 0.18714 L 664.01243,130 h 17.59064 V 52.807016 h -17.59064 v 47.906434 h -0.18714 L 633.13523,52.807016 H 615.54459 V 130 h 17.59064 z"/>
		<path d="M 697.84723,52.807016 V 130 h 17.59065 V 99.497075 L 739.01682,130 H 761.3794 L 734.8063,98.093567 c 9.45029,-2.994152 15.81286,-10.760234 15.81286,-22.362574 0,-15.157895 -10.8538,-22.923977 -25.16959,-22.923977 z m 17.59065,34.245615 V 66.842104 h 2.05848 c 6.64327,0 14.59649,0.467836 14.59649,10.105263 0,9.637428 -7.95322,10.105264 -14.59649,10.105264 z"/>
		<path d="m 753.08847,52.807016 28.44445,42.5731 V 130 h 17.59064 V 95.380116 l 28.44445,-42.5731 h -21.1462 L 790.32824,77.508771 774.23467,52.807016 Z"/>
		<path d="m 882.08991,130 h 13.84795 L 928.31213,52.807016 H 908.47587 L 889.01389,103.52047 869.5519,52.807016 h -19.83626 z"/>
	</g>
	<g aria-label="WILLIAM SHAKESPEARE">
		<path d="m 267.22807,290 h 14.59649 l 16.49123,-57.89474 H 283.7193 l -9.89473,39.7193 h -0.35088 l -10.52632,-39.7193 h -9.96491 l -10.52632,39.7193 h -0.35087 l -9.89474,-39.7193 H 217.54386 L 234.03509,290 h 14.66667 l 9.26316,-32.49123 z"/>
		<path d="M 319.67325,232.10526 H 306.48027 V 290 h 13.19298 z"/>
		<path d="M 346.32895,232.10526 H 333.13597 V 290 h 33.12281 v -11.57895 h -19.92983 z"/>
		<path d="M 390.9397,232.10526 H 377.74672 V 290 h 33.12281 V 278.42105 H 390.9397 Z"/>
		<path d="M 435.55045,232.10526 H 422.35747 V 290 h 13.19298 z"/>
		<path d="M 478.41668,232.10526 H 466.20615 L 442.83773,290 h 14.17544 l 4.2807,-11.57895 h 22.03509 L 487.60966,290 h 14.17544 z m 0.42105,34.73685 H 465.7851 L 472.24124,250 h 0.14035 z"/>
		<path d="m 556.83443,290 h 13.19298 l -5.19298,-57.89474 h -14.03509 l -12.84211,33.40351 -12.8421,-33.40351 H 511.08004 L 505.88706,290 h 13.19298 l 2.73684,-34.31579 h 0.35088 l 11.85965,33.96491 h 7.85965 l 11.85965,-33.96491 h 0.35087 z"/>
		<path d="m 624.46381,231.05263 c -9.33333,0 -18.87719,6.8772 -18.87719,17.68421 0,6.03509 4.07017,11.4386 11.01754,14.8772 6.87719,3.43859 13.05263,5.33333 13.05263,9.54385 0,5.40351 -5.47368,5.68422 -8.35087,5.68422 -6.45614,0 -14.17544,-6.52632 -14.17544,-6.52632 l -6.59649,11.08772 c 0,0 8.21052,7.64912 21.75438,7.64912 11.29825,0 21.82456,-4.8421 21.82456,-18.66666 0,-7.57895 -7.08772,-13.05264 -13.54386,-15.78948 -6.59649,-2.80702 -12.07017,-5.12281 -12.07017,-8.35088 0,-3.15789 2.38596,-5.19298 6.87719,-5.19298 5.96491,0 11.7193,4 11.7193,4 l 5.33333,-10.52631 c 0,0 -7.43859,-5.47369 -17.96491,-5.47369 z"/>
		<path d="m 668.4726,266.77193 h 18.66667 V 290 h 13.19298 v -57.89474 h -13.19298 v 23.08772 H 668.4726 V 232.10526 H 655.27962 V 290 h 13.19298 z"/>
		<path d="M 743.13704,232.10526 H 730.92652 L 707.5581,290 h 14.17544 l 4.2807,-11.57895 h 22.03508 L 752.33003,290 h 14.17543 z m 0.42106,34.73685 H 730.50547 L 736.96161,250 h 0.14035 z"/>
		<path d="m 826.39696,290 -26.94737,-30.45614 23.29825,-27.4386 h -16 l -19.85965,23.64913 V 232.10526 H 773.69521 V 290 h 13.19298 V 265.4386 L 808.22152,290 Z"/>
		<path d="M 867.05373,232.10526 H 833.93092 V 290 h 33.12281 v -11.57895 h -19.92982 v -11.64912 h 19.08771 v -11.57895 h -19.08771 v -11.50877 h 19.92982 z"/>
		<path d="m 900.97147,231.05263 c -9.33333,0 -18.87719,6.8772 -18.87719,17.68421 0,6.03509 4.07017,11.4386 11.01754,14.8772 6.87719,3.43859 13.05263,5.33333 13.05263,9.54385 0,5.40351 -5.47368,5.68422 -8.35087,5.68422 -6.45614,0 -14.17544,-6.52632 -14.17544,-6.52632 l -6.59649,11.08772 c 0,0 8.21052,7.64912 21.75438,7.64912 11.29825,0 21.82456,-4.8421 21.82456,-18.66666 0,-7.57895 -7.08772,-13.05264 -13.54386,-15.78948 -6.59649,-2.80702 -12.07017,-5.12281 -12.07017,-8.35088 0,-3.15789 2.38596,-5.19298 6.87719,-5.19298 5.96491,0 11.7193,4 11.7193,4 l 5.33333,-10.52631 c 0,0 -7.43859,-5.47369 -17.96491,-5.47369 z"/>
		<path d="M 931.78731,232.10526 V 290 h 13.19298 v -21.47368 h 7.92982 c 11.29825,0 19.78948,-6.66667 19.78948,-18.5965 0,-11.99999 -8.49123,-17.82456 -19.78948,-17.82456 z M 944.98029,258 v -15.36842 h 3.7193 c 5.19298,0 10.10526,1.75439 10.10526,7.7193 0,5.89473 -4.91228,7.64912 -10.10526,7.64912 z"/>
		<path d="M 1016.648,232.10526 H 983.52522 V 290 h 33.12278 v -11.57895 h -19.9298 v -11.64912 h 19.0877 v -11.57895 h -19.0877 v -11.50877 h 19.9298 z"/>
		<path d="m 1059.0471,232.10526 h -12.2105 L 1023.4682,290 h 14.1754 l 4.2807,-11.57895 h 22.0351 L 1068.2401,290 h 14.1755 z m 0.4211,34.73685 h -13.0526 L 1052.8717,250 h 0.1404 z"/>
		<path d="M 1089.6052,232.10526 V 290 h 13.193 V 267.12281 L 1120.4824,290 h 16.772 l -19.9299,-23.92982 c 7.0878,-2.24562 11.8597,-8.07018 11.8597,-16.77193 0,-11.36842 -8.1404,-17.19299 -18.8772,-17.19299 z m 13.193,25.68421 v -15.15789 h 1.5439 c 4.9824,0 10.9473,0.35088 10.9473,7.57895 0,7.22807 -5.9649,7.57894 -10.9473,7.57894 z"/>
		<path d="m 1178.0296,232.10526 h -33.1228 V 290 h 33.1228 v -11.57895 h -19.9298 v -11.64912 h 19.0877 v -11.57895 h -19.0877 v -11.50877 h 19.9298 z"/>
	</g>
</svg>
